<?xml version="1.0" encoding="UTF-8"?>
<svg width="110px" height="190px" viewBox="0 0 110 190" version="1.1" xmlns="http://www.w3.org/2000/svg" xmlns:xlink="http://www.w3.org/1999/xlink">
    <!-- Generator: Sketch 48.1 (47250) - http://www.bohemiancoding.com/sketch -->
    <title>feedback copy</title>
    <desc>Created with Sketch.</desc>
    <defs>
        <path d="M22,0 L88.1984266,-7.10542736e-15 C100.348691,-2.01289975e-14 110.198427,9.8497355 110.198427,22 L110.198427,52.707646 C110.198427,64.8579105 100.348691,74.707646 88.1984266,74.707646 L59.3627273,74.707646 C53.8760115,74.707646 48.5873078,76.7578494 44.5342154,80.4560236 L39.3372918,85.1978667 C38.2686392,86.1729402 36.6118719,86.0970794 35.6367984,85.0284269 C35.0660094,84.4028586 34.8328661,83.539937 35.0109584,82.7120367 L35.0109584,82.7120367 C35.7791011,79.141161 33.507037,75.6236916 29.9361613,74.855549 C29.4790775,74.7572242 29.0128558,74.707646 28.545316,74.707646 L18.3664044,74.707646 C8.22291935,74.707646 1.54530734e-14,66.4847267 1.42108547e-14,56.3412416 L1.0658141e-14,22 C9.17016278e-15,9.8497355 9.8497355,5.78468106e-15 22,3.55271368e-15 Z" id="path-1"></path>
    </defs>
    <g id="Symbols" stroke="none" stroke-width="1" fill="none" fill-rule="evenodd">
        <g id="feedback-copy">
            <g id="Group-3" transform="translate(0.000000, 52.000000)">
                <g id="Group">
                    <g id="Rectangle-2-Copy" transform="translate(55.099213, 42.941151) scale(-1, 1) translate(-55.099213, -42.941151) ">
                        <use fill="#CAE0C2" fill-rule="evenodd" xlink:href="#path-1"></use>
                        <path stroke="#A3C996" stroke-width="10" d="M39.7040145,78.0947019 L41.164099,76.762473 C46.1383488,72.2238048 52.6290307,69.707646 59.3627273,69.707646 L88.1984266,69.707646 C97.5872673,69.707646 105.198427,62.0964868 105.198427,52.707646 L105.198427,22 C105.198427,12.6111593 97.5872673,5 88.1984266,5 L22,5 C12.6111593,5 5,12.6111593 5,22 L5,56.3412416 C5,63.7233029 10.9843431,69.707646 18.3664044,69.707646 L28.545316,69.707646 C29.3663271,69.707646 30.1850237,69.7947065 30.987674,69.9673672 C35.3124204,70.8976774 38.5522723,74.1244943 39.7040145,78.0947019 Z"></path>
                    </g>
                </g>
                <g id="Group-2" transform="translate(36.000000, 34.000000)" fill="#FFFFFF">
                    <ellipse id="Oval-6" cx="3.54545455" cy="3.5" rx="3.54545455" ry="3.5"></ellipse>
                    <ellipse id="Oval-6-Copy" cx="19.5" cy="3.5" rx="3.54545455" ry="3.5"></ellipse>
                    <ellipse id="Oval-6-Copy-2" cx="35.4545455" cy="3.5" rx="3.54545455" ry="3.5"></ellipse>
                </g>
            </g>
        </g>
    </g>
</svg>